<?xml version="1.0" encoding="utf-8"?>
<!-- Generator: Adobe Illustrator 16.0.0, SVG Export Plug-In . SVG Version: 6.00 Build 0)  -->
<!DOCTYPE svg PUBLIC "-//W3C//DTD SVG 1.1//EN" "http://www.w3.org/Graphics/SVG/1.1/DTD/svg11.dtd">
<svg version="1.1" id="Layer_1" xmlns="http://www.w3.org/2000/svg" xmlns:xlink="http://www.w3.org/1999/xlink" x="0px" y="0px"
	 width="64px" height="64px" viewBox="0 0 64 64" enable-background="new 0 0 64 64" xml:space="preserve">
<line fill="none" stroke="#48B749" stroke-miterlimit="10" x1="0" y1="38.834" x2="7.5" y2="25"/>
<line fill="none" stroke="#48B749" stroke-miterlimit="10" x1="7.5" y1="25" x2="2.75" y2="20.625"/>
<line fill="none" stroke="#48B749" stroke-miterlimit="10" x1="2.75" y1="20.625" x2="20.75" y2="18.375"/>
<line fill="none" stroke="#48B749" stroke-miterlimit="10" x1="20.75" y1="18.375" x2="27.125" y2="37.25"/>
<line fill="none" stroke="#48B749" stroke-miterlimit="10" x1="27.125" y1="37.25" x2="20.75" y2="32.625"/>
<line fill="none" stroke="#48B749" stroke-miterlimit="10" x1="20.75" y1="32.625" x2="5.125" y2="56.875"/>
<line fill="none" stroke="#48B749" stroke-miterlimit="10" x1="5.125" y1="56.875" x2="30.625" y2="56.875"/>
<line fill="none" stroke="#48B749" stroke-miterlimit="10" x1="0" y1="38.834" x2="5.125" y2="56.875"/>
<line fill="none" stroke="#48B749" stroke-miterlimit="10" x1="27.125" y1="48.375" x2="35.25" y2="64"/>
<line fill="none" stroke="#48B749" stroke-miterlimit="10" x1="35.25" y1="64" x2="35.25" y2="56.875"/>
<line fill="none" stroke="#48B749" stroke-miterlimit="10" x1="35.25" y1="56.875" x2="54.25" y2="56.875"/>
<line fill="none" stroke="#48B749" stroke-miterlimit="10" x1="54.25" y1="56.875" x2="64" y2="37.25"/>
<line fill="none" stroke="#48B749" stroke-miterlimit="10" x1="27.125" y1="48.375" x2="35.25" y2="31.917"/>
<line fill="none" stroke="#48B749" stroke-miterlimit="10" x1="35.25" y1="31.917" x2="35.25" y2="39.375"/>
<line fill="none" stroke="#48B749" stroke-miterlimit="10" x1="35.25" y1="39.375" x2="64" y2="37.25"/>
<line fill="none" stroke="#48B749" stroke-miterlimit="10" x1="64" y1="37.25" x2="53.125" y2="19.5"/>
<line fill="none" stroke="#48B749" stroke-miterlimit="10" x1="39.5" y1="29.25" x2="45.625" y2="38.313"/>
<line fill="none" stroke="#48B749" stroke-miterlimit="10" x1="31.188" y1="29.25" x2="49.625" y2="27.813"/>
<line fill="none" stroke="#48B749" stroke-miterlimit="10" x1="49.625" y1="27.813" x2="56.25" y2="11.75"/>
<line fill="none" stroke="#48B749" stroke-miterlimit="10" x1="56.25" y1="11.75" x2="50.75" y2="14"/>
<line fill="none" stroke="#48B749" stroke-miterlimit="10" x1="50.75" y1="14" x2="41.625" y2="1.625"/>
<line fill="none" stroke="#48B749" stroke-miterlimit="10" x1="41.625" y1="1.625" x2="23.938" y2="1"/>
<line fill="none" stroke="#48B749" stroke-miterlimit="10" x1="31.188" y1="28.531" x2="37.125" y2="22.813"/>
<line fill="none" stroke="#48B749" stroke-miterlimit="10" x1="37.125" y1="22.813" x2="23.938" y2="1"/>
<line fill="none" stroke="#48B749" stroke-miterlimit="10" x1="23.938" y1="1" x2="12.273" y2="19.435"/>
<line fill="none" stroke="#48B749" stroke-miterlimit="10" x1="24.18" y1="28.531" x2="32.781" y2="15.628"/>
<line fill="none" stroke="#48B749" stroke-miterlimit="10" x1="16.401" y1="39.375" x2="31.188" y2="39.375"/>
</svg>
