<?xml version="1.0" encoding="utf-8"?>
<!-- Generator: Adobe Illustrator 16.0.0, SVG Export Plug-In . SVG Version: 6.00 Build 0)  -->
<!DOCTYPE svg PUBLIC "-//W3C//DTD SVG 1.1//EN" "http://www.w3.org/Graphics/SVG/1.1/DTD/svg11.dtd">
<svg version="1.1" id="Layer_1" xmlns="http://www.w3.org/2000/svg" xmlns:xlink="http://www.w3.org/1999/xlink" x="0px" y="0px"
	 width="128px" height="128px" viewBox="0 0 128 128" enable-background="new 0 0 128 128" xml:space="preserve">
<rect fill="#090B13" width="128" height="128"/>
<line fill="none" stroke="#D2E8C6" stroke-miterlimit="10" x1="6.5" y1="72.75" x2="18.75" y2="47.75"/>
<line fill="none" stroke="#D2E8C6" stroke-miterlimit="10" x1="6.5" y1="72.75" x2="20.75" y2="58.25"/>
<line fill="none" stroke="#D2E8C6" stroke-miterlimit="10" x1="20.75" y1="58.25" x2="56" y2="81.5"/>
<line fill="none" stroke="#D2E8C6" stroke-miterlimit="10" x1="56" y1="81.5" x2="52.75" y2="69.875"/>
<line fill="none" stroke="#D2E8C6" stroke-miterlimit="10" x1="51" y1="68.25" x2="103.25" y2="124.75"/>
<line fill="none" stroke="#D2E8C6" stroke-miterlimit="10" x1="103.25" y1="124.75" x2="93.25" y2="64"/>
<line fill="none" stroke="#D2E8C6" stroke-miterlimit="10" x1="93.25" y1="64" x2="85.25" y2="55.75"/>
<line fill="none" stroke="#D2E8C6" stroke-miterlimit="10" x1="85.25" y1="55.75" x2="70.25" y2="34.5"/>
<line fill="none" stroke="#D2E8C6" stroke-miterlimit="10" x1="70.25" y1="34.5" x2="52.75" y2="60.25"/>
<line fill="none" stroke="#D2E8C6" stroke-miterlimit="10" x1="52.75" y1="60.25" x2="51" y2="67"/>
<line fill="none" stroke="#D2E8C6" stroke-miterlimit="10" x1="18.75" y1="47.75" x2="51" y2="63.625"/>
<line fill="none" stroke="#D2E8C6" stroke-miterlimit="10" x1="23.5" y1="51.5" x2="17" y2="57"/>
<line fill="none" stroke="#D2E8C6" stroke-miterlimit="10" x1="17" y1="57" x2="20.75" y2="58.25"/>
<line fill="none" stroke="#D2E8C6" stroke-miterlimit="10" x1="17" y1="58.25" x2="7.729" y2="71.5"/>
<line fill="none" stroke="#D2E8C6" stroke-miterlimit="10" x1="52.75" y1="60.25" x2="48" y2="43.5"/>
<line fill="none" stroke="#D2E8C6" stroke-miterlimit="10" x1="48" y1="43.5" x2="61.5" y2="15.5"/>
<line fill="none" stroke="#D2E8C6" stroke-miterlimit="10" x1="61.5" y1="15.5" x2="84" y2="40.75"/>
<line fill="none" stroke="#D2E8C6" stroke-miterlimit="10" x1="84" y1="40.75" x2="84" y2="53.979"/>
<line fill="none" stroke="#D2E8C6" stroke-miterlimit="10" x1="84" y1="53.979" x2="125.5" y2="9.75"/>
<line fill="none" stroke="#D2E8C6" stroke-miterlimit="10" x1="125.5" y1="9.75" x2="91.75" y2="60.25"/>
<line fill="none" stroke="#D2E8C6" stroke-miterlimit="10" x1="61.5" y1="15.5" x2="66.002" y2="40.75"/>
<line fill="none" stroke="#D2E8C6" stroke-miterlimit="10" x1="52.75" y1="60.25" x2="86.462" y2="57"/>
<line fill="none" stroke="#D2E8C6" stroke-miterlimit="10" x1="70.25" y1="34.5" x2="69.605" y2="58.25"/>
<line fill="none" stroke="#D2E8C6" stroke-miterlimit="10" x1="69.605" y1="58.25" x2="103.25" y2="124.75"/>
<g>
	<g>
		<path fill="#D2E8C6" d="M9.238,107.158c4.278,2.118,8.155,3.825,10.101,8.507c0.885,2.129,4.126,2.616,4.821,0
			c3.617-13.607,19.599-15.868,28.357-25.147c2.211-2.343-1.318-5.885-3.535-3.535c-9.665,10.239-25.582,12.074-29.643,27.353
			c1.607,0,3.214,0,4.821,0c-2.538-6.105-6.648-8.647-12.399-11.493C8.882,101.416,6.348,105.729,9.238,107.158L9.238,107.158z"/>
	</g>
</g>
</svg>
